<?xml version="1.0" encoding="UTF-8" standalone="no"?>
<!-- Created with Inkscape (http://www.inkscape.org/) -->

<svg
   xmlns:dc="http://purl.org/dc/elements/1.1/"
   xmlns:cc="http://creativecommons.org/ns#"
   xmlns:rdf="http://www.w3.org/1999/02/22-rdf-syntax-ns#"
   xmlns:svg="http://www.w3.org/2000/svg"
   xmlns="http://www.w3.org/2000/svg"
   xmlns:sodipodi="http://sodipodi.sourceforge.net/DTD/sodipodi-0.dtd"
   xmlns:inkscape="http://www.inkscape.org/namespaces/inkscape"
   width="210mm"
   height="297mm"
   viewBox="0 0 744.09448819 1052.3622047"
   id="svg2"
   version="1.1"
   inkscape:version="0.91 r"
   inkscape:export-filename="/home/debaq/medio.jpg"
   inkscape:export-xdpi="90"
   inkscape:export-ydpi="90"
   sodipodi:docname="drawing.svg">
  <defs
     id="defs4" />
  <sodipodi:namedview
     id="base"
     pagecolor="#ffffff"
     bordercolor="#666666"
     borderopacity="1.0"
     inkscape:pageopacity="0.0"
     inkscape:pageshadow="2"
     inkscape:zoom="0.98994949"
     inkscape:cx="289.66416"
     inkscape:cy="514.26385"
     inkscape:document-units="px"
     inkscape:current-layer="layer1"
     showgrid="false"
     inkscape:window-width="1280"
     inkscape:window-height="743"
     inkscape:window-x="0"
     inkscape:window-y="0"
     inkscape:window-maximized="1" />
  <metadata
     id="metadata7">
    <rdf:RDF>
      <cc:Work
         rdf:about="">
        <dc:format>image/svg+xml</dc:format>
        <dc:type
           rdf:resource="http://purl.org/dc/dcmitype/StillImage" />
        <dc:title></dc:title>
      </cc:Work>
    </rdf:RDF>
  </metadata>
  <g
     inkscape:label="Capa 1"
     inkscape:groupmode="layer"
     id="layer1">
    <path
       style="fill:none;fill-rule:evenodd;stroke:#000000;stroke-width:1px;stroke-linecap:butt;stroke-linejoin:miter;stroke-opacity:1"
       d="m 372.04724,366.577 0,319.20821"
       id="path8070"
       inkscape:connector-curvature="0"
       inkscape:export-xdpi="90"
       inkscape:export-ydpi="90" />
    <path
       style="fill:none;fill-rule:evenodd;stroke:#000000;stroke-width:1px;stroke-linecap:butt;stroke-linejoin:miter;stroke-opacity:1"
       d="m 531.65135,526.1811 -319.20821,0"
       id="path8070-8"
       inkscape:connector-curvature="0"
       inkscape:export-xdpi="90"
       inkscape:export-ydpi="90" />
    <path
       style="fill:none;fill-rule:evenodd;stroke:#000000;stroke-width:1px;stroke-linecap:butt;stroke-linejoin:miter;stroke-opacity:1"
       d="m 290.92393,449.30114 c 1.25614,1.48255 -4.30293,4.56525 -5.05076,6.06091 -0.15371,0.30742 0,2.57553 0,3.03046 0,0.24004 -0.1132,3.8142 0,4.04061 0.21296,0.42592 0.79719,0.58423 1.01015,1.01015 0.30117,0.60234 -0.47619,1.54412 0,2.02031 1.90774,1.90773 1.90682,0.4767 4.04061,1.01015 1.46089,0.36522 2.61204,1.54411 4.04061,2.0203 0.39308,0.13103 2.8737,-0.15676 3.03046,0 0.2381,0.2381 0,0.67344 0,1.01016 0,0.33671 0.066,0.67997 0,1.01015 -0.53419,2.67094 -0.74644,3.9378 -2.0203,6.06091 -2.20709,3.67847 -2.02031,1.71439 -2.02031,4.04061 0,0.33672 0.2381,0.77206 0,1.01016 -0.23809,0.23809 -0.77206,-0.2381 -1.01015,0 -0.2381,0.23809 -0.30117,0.85956 0,1.01015 0.60234,0.30117 1.41796,-0.30117 2.0203,0 0.30117,0.15058 -0.30117,0.85957 0,1.01015 0.29139,0.1457 5.41531,0 6.06092,0 0.52823,0 3.775,0.13281 4.04061,0 0.42592,-0.21296 0.58423,-0.79719 1.01015,-1.01015 0.30117,-0.15059 0.77206,0.23809 1.01015,0 0.2381,-0.2381 -0.18677,-0.72999 0,-1.01015 0.52829,-0.79243 1.44888,-1.2584 2.02031,-2.02031 0.45175,-0.60234 0.5584,-1.41796 1.01015,-2.0203 0.57143,-0.76191 1.49202,-1.22788 2.02031,-2.02031 0.18677,-0.28016 -0.15059,-0.70898 0,-1.01015 0.35972,-0.71944 1.66058,-1.30087 2.0203,-2.02031 0.15059,-0.30117 -0.23809,-0.77205 0,-1.01015 0.2381,-0.23809 0.77206,0.2381 1.01015,0 0.1729,-0.1729 -0.13245,-3.51078 0,-4.04061 0.25825,-1.033 0.80133,-1.98634 1.01016,-3.03046 0.13207,-0.66035 0,-1.34687 0,-2.0203 0,-1.34687 0,-2.69374 0,-4.04061 0,-1.34687 0.22142,-2.71207 0,-4.04061 -1.46191,-8.77144 -1.01016,6.57803 -1.01016,-5.05076 0,-2.35703 0,-4.71405 0,-7.07107 0,-0.67344 0.13208,-1.35995 0,-2.02031 -0.20882,-1.04411 -0.7519,-1.99745 -1.01015,-3.03046 -0.10368,-0.41473 0.12245,-1.89785 0,-2.0203 -0.23809,-0.2381 -0.69071,0.10648 -1.01015,0 -0.71429,-0.2381 -1.34687,-0.67344 -2.02031,-1.01015 -1.01015,0 -2.03992,0.1981 -3.03045,0 -0.73831,-0.14766 -1.26739,-1.01016 -2.02031,-1.01016 -0.75292,0 -1.30602,0.77206 -2.0203,1.01016 -0.31944,0.10648 -0.67344,0 -1.01016,0 -0.67343,0 -1.35363,-0.0952 -2.0203,0 -2.08305,0.29757 -6.88562,1.39009 -9.09137,2.0203 -1.02383,0.29252 -2.00664,0.71763 -3.03046,1.01015 -1.33491,0.38141 -2.79886,0.38928 -4.04061,1.01016 -0.30117,0.15058 0.18678,0.72998 0,1.01015 -0.52829,0.79243 -1.34687,1.34687 -2.02031,2.0203 -0.33671,0.33672 -1.01015,0.53397 -1.01015,1.01016 0,0.75292 0.77206,1.30602 1.01015,2.0203 0.10648,0.31944 -0.10648,0.69072 0,1.01015 0.2381,0.71429 0.77206,1.30602 1.01016,2.02031 0.21295,0.63888 -0.4762,1.54411 0,2.02031 0.23809,0.23809 0.70898,-0.15059 1.01015,0 0.89533,0.44766 2.1109,2.41741 3.03046,3.03045 0.62647,0.41765 1.4879,0.47776 2.0203,1.01016 0.2381,0.23809 -0.23809,0.77205 0,1.01015 0.5324,0.5324 1.30602,0.77206 2.02031,1.01015 0.31943,0.10648 0.77205,-0.23809 1.01015,0 0.23809,0.2381 -0.30117,0.85957 0,1.01015 0.60234,0.30117 1.34687,0 2.0203,0 0.33672,0 0.67344,0 1.01016,0 0.33671,0 0.70898,0.15059 1.01015,0 0.88015,-0.44007 1.84454,-2.3274 2.0203,-3.03045 0.245,-0.98 0,-2.02031 0,-3.03046 0,-0.33672 0,-1.34687 0,-1.01015 0,0.67343 0,2.69374 0,2.0203 0,-1.01015 0.31944,-2.07214 0,-3.03046 -0.43214,-1.29644 -1.29574,0.64787 -2.0203,1.01016 -0.30117,0.15058 -0.67344,0 -1.01015,0 -1.68359,0 -3.50331,-0.6632 -5.05077,0 -1.31306,0.56274 -2.0203,2.0203 -3.03045,3.03045 -0.33672,0.33672 -0.7972,0.58424 -1.01016,1.01016 -0.15058,0.30116 0.2381,0.77205 0,1.01015 -0.23809,0.23809 -0.82337,-0.28017 -1.01015,0 -1.28779,1.93168 -1.01015,3.94485 -1.01015,6.06091 0,2.79008 -0.2914,4.46797 1.01015,7.07107 0.54294,1.08588 1.54207,1.91457 2.02031,3.03046 0.54688,1.27607 0.57112,2.72353 1.01015,4.04061 0.75597,2.26793 1.87782,2.74548 3.03046,5.05076 0.15058,0.30117 -0.31944,0.90367 0,1.01015 0.95831,0.31944 2.05046,-0.24499 3.03045,0 0.46198,0.1155 0.5584,0.85957 1.01016,1.01016 0.63887,0.21296 1.34687,0 2.0203,0 1.01015,0 2.02031,0 3.03046,0 0.56382,0 4.58835,0.15413 5.05076,0 0.45176,-0.15059 0.58424,-0.7972 1.01015,-1.01016 0.95238,-0.47619 2.07808,-0.53396 3.03046,-1.01015 1.15806,-0.57903 1.40513,-2.10769 2.02031,-3.03046 0.26414,-0.39621 0.8333,-0.56802 1.01015,-1.01015 0.51561,-1.28902 0.67343,-2.69374 1.01015,-4.04061 0.56242,-2.24968 1.80657,-6.954 2.02031,-9.09137 0.16752,-1.67523 -0.2381,-3.3841 0,-5.05076 0.10648,-0.74536 0.82754,-1.28987 1.01015,-2.02031 0.16333,-0.65333 0,-1.34687 0,-2.0203 0,-0.67344 0,-1.34687 0,-2.02031 0,-0.33672 0.23809,-0.77206 0,-1.01015 -0.2381,-0.2381 -0.67344,0 -1.01015,0 -0.33672,0 -0.70899,-0.15059 -1.01016,0 -0.42591,0.21296 -0.55839,0.85957 -1.01015,1.01015 -0.63887,0.21296 -1.35603,-0.11071 -2.0203,0 -5.94431,0.99072 -6.56472,2.88542 -12.12183,6.06092 -0.58471,0.33411 -1.54412,-0.47619 -2.02031,0 -0.23809,0.23809 0.2381,0.77205 0,1.01015 -0.23809,0.23809 -0.70898,-0.15059 -1.01015,0 -0.42592,0.21296 -0.58424,0.79719 -1.01015,1.01015 -0.30117,0.15059 -0.77206,-0.23809 -1.01016,0 -0.53239,0.5324 -0.77205,1.30602 -1.01015,2.02031 -0.10648,0.31943 0.2381,0.77205 0,1.01015 -0.23809,0.23809 -0.67343,0 -1.01015,0 0,0.67343 0.16333,1.36698 0,2.0203 -0.11677,0.46706 -1.47703,2.0967 -1.01015,3.03046 1.11675,2.2335 0.62694,0.31347 2.0203,1.01015 0.42592,0.21296 0.5584,0.85957 1.01015,1.01016 0.63888,0.21295 1.38143,-0.21296 2.02031,0 0.45175,0.15058 0.5584,0.85956 1.01015,1.01015 0.63888,0.21296 1.34687,0 2.02031,0 0.33671,0 0.67343,0 1.01015,0 0.33672,0 0.77206,0.23809 1.01015,0 0.2381,-0.2381 -0.23809,-0.77206 0,-1.01015 0.2381,-0.2381 0.70898,0.15058 1.01015,0 0.36129,-0.18065 3.76056,-3.62053 4.04061,-4.04061 0.41765,-0.62647 0.77206,-1.30602 1.01016,-2.02031 0.10648,-0.31944 -0.0554,-0.67802 0,-1.01015 0.28226,-1.69357 0.53847,-3.3999 1.01015,-5.05076 0.20684,-0.72396 0.67343,-1.34687 1.01015,-2.02031 0,-1.01015 -0.245,-2.05047 0,-3.03046 0.11549,-0.46197 0.7972,-0.58423 1.01015,-1.01015 0.15059,-0.30117 0,-0.67343 0,-1.01015 0,-0.33672 0,-0.67344 0,-1.01015"
       id="path8089"
       inkscape:connector-curvature="0"
       inkscape:export-xdpi="90"
       inkscape:export-ydpi="90" />
  </g>
</svg>
