<?xml version="1.0" encoding="UTF-8" standalone="no"?>
<!-- Created with Inkscape (http://www.inkscape.org/) -->

<svg
   xmlns:dc="http://purl.org/dc/elements/1.1/"
   xmlns:cc="http://creativecommons.org/ns#"
   xmlns:rdf="http://www.w3.org/1999/02/22-rdf-syntax-ns#"
   xmlns:svg="http://www.w3.org/2000/svg"
   xmlns="http://www.w3.org/2000/svg"
   xmlns:xlink="http://www.w3.org/1999/xlink"
   xmlns:sodipodi="http://sodipodi.sourceforge.net/DTD/sodipodi-0.dtd"
   xmlns:inkscape="http://www.inkscape.org/namespaces/inkscape"
   width="210mm"
   height="297mm"
   viewBox="0 0 744.09448819 1052.3622047"
   id="svg2"
   version="1.1"
   inkscape:version="0.91 r"
   sodipodi:docname="triada.svg">
  <defs
     id="defs4">
    <pattern
       inkscape:collect="always"
       xlink:href="#pattern11635"
       id="pattern11642"
       patternTransform="translate(-161.19348,-306.74523)" />
    <pattern
       inkscape:collect="always"
       xlink:href="#Checkerboard"
       id="pattern11629"
       patternTransform="matrix(146.46128,0,0,146.46128,-774.09711,299.08646)" />
    <pattern
       inkscape:collect="always"
       xlink:href="#Checkerboard"
       id="pattern5617"
       patternTransform="matrix(10,0,0,10,-775.59709,297.58647)" />
    <pattern
       inkscape:stockid="Checkerboard"
       id="Checkerboard"
       patternTransform="translate(0,0) scale(10,10)"
       height="2"
       width="2"
       patternUnits="userSpaceOnUse"
       inkscape:collect="always"
       inkscape:isstock="true">
      <rect
         id="rect4968"
         height="1"
         width="1"
         y="0"
         x="0"
         style="fill:black;stroke:none" />
      <rect
         id="rect4970"
         height="1"
         width="1"
         y="1"
         x="1"
         style="fill:black;stroke:none" />
    </pattern>
    <pattern
       patternUnits="userSpaceOnUse"
       width="1063.4814"
       height="1063.4814"
       patternTransform="translate(775.59709,-297.58647)"
       id="pattern5614">
      <rect
         inkscape:export-ydpi="90"
         inkscape:export-xdpi="90"
         y="4.1335001"
         x="4.1335001"
         height="1055.2144"
         width="1055.2144"
         id="rect4166"
         style="fill:url(#pattern5617);fill-opacity:1;stroke:#000000;stroke-width:8.2670002;stroke-linejoin:round;stroke-miterlimit:4;stroke-dasharray:none;stroke-opacity:1" />
    </pattern>
    <pattern
       patternUnits="userSpaceOnUse"
       width="1066.4814"
       height="1066.4814"
       patternTransform="translate(774.09711,-299.08646)"
       id="pattern11635">
      <rect
         inkscape:export-ydpi="90"
         inkscape:export-xdpi="90"
         id="rect5619"
         y="1.5"
         x="1.5"
         height="1063.4814"
         width="1063.4814"
         style="fill:url(#pattern11629);fill-opacity:1;stroke:#000000;stroke-width:3;stroke-miterlimit:4;stroke-dasharray:none;stroke-opacity:1" />
    </pattern>
  </defs>
  <sodipodi:namedview
     id="base"
     pagecolor="#ffffff"
     bordercolor="#666666"
     borderopacity="1.0"
     inkscape:pageopacity="0.0"
     inkscape:pageshadow="2"
     inkscape:zoom="0.26113864"
     inkscape:cx="546.65246"
     inkscape:cy="670.08499"
     inkscape:document-units="px"
     inkscape:current-layer="layer1"
     showgrid="false"
     inkscape:window-width="1280"
     inkscape:window-height="743"
     inkscape:window-x="0"
     inkscape:window-y="0"
     inkscape:window-maximized="1" />
  <metadata
     id="metadata7">
    <rdf:RDF>
      <cc:Work
         rdf:about="">
        <dc:format>image/svg+xml</dc:format>
        <dc:type
           rdf:resource="http://purl.org/dc/dcmitype/StillImage" />
        <dc:title />
      </cc:Work>
    </rdf:RDF>
  </metadata>
  <g
     inkscape:label="Capa 1"
     inkscape:groupmode="layer"
     id="layer1">
    <rect
       style="fill:url(#pattern11642);stroke:none"
       width="1066.4814"
       height="1066.4814"
       x="-161.19348"
       y="-306.74521"
       id="rect11638"
       inkscape:export-xdpi="90"
       inkscape:export-ydpi="90" />
    <g
       id="g8089"
       transform="translate(-935.29058,-7.6588104)">
      <path
         inkscape:transform-center-x="0.72299455"
         inkscape:transform-center-y="-9.5017235"
         sodipodi:nodetypes="zszszsz"
         inkscape:connector-curvature="0"
         id="path3446-8"
         d="m 1307.3353,-150.65983 c -132.5783,9.2e-4 -196.2136,192.891906 -262.5018,307.70834 -66.28817,114.81644 -201.51679,266.37568 -135.22736,381.1912 66.28943,114.8146 265.15456,73.48101 397.73196,73.48009 132.5773,0 331.4433,41.33267 397.7318,-73.48285 66.2888,-114.81551 -68.9409,-266.37292 -135.23,-381.18936 -66.2891,-114.815514 -129.9262,-307.70742 -262.5046,-307.70742 z"
         style="fill:#ffffff;fill-opacity:1;fill-rule:evenodd;stroke:#ff0000;stroke-width:9.1852417;stroke-linecap:butt;stroke-linejoin:round;stroke-miterlimit:4;stroke-dasharray:none;stroke-opacity:1" />
      <path
         sodipodi:nodetypes="cccccccsc"
         inkscape:connector-curvature="0"
         id="path3436-6"
         d="m 1203.4663,506.13913 c 19.815,9.68492 82.2591,27.58328 76.9921,-55.39711 -14.6536,-45.21435 -99.5176,-81.50616 -79.809,-152.10576 29.1214,-76.35784 4.065,-119.60655 -9.3892,-169.94626 -23.3224,-43.483853 -48.3573,-33.881602 -74.1753,0 -66.4282,84.84591 -66.0047,108.77163 -47.8854,145.53372 0,0 29.1068,63.84753 57.2746,91.07626 25.1962,30.61717 33.1635,38.34287 39.4158,60.48849 6.2523,22.14654 9.8507,66.22467 37.5764,80.35066 z"
         style="fill:#ffffff;fill-opacity:1;fill-rule:evenodd;stroke:#000000;stroke-width:9.18524075;stroke-linecap:butt;stroke-linejoin:round;stroke-miterlimit:4;stroke-dasharray:none;stroke-opacity:1" />
      <path
         style="fill:#ffffff;fill-opacity:1;fill-rule:evenodd;stroke:#000000;stroke-width:9.18524075;stroke-linecap:butt;stroke-linejoin:round;stroke-miterlimit:4;stroke-dasharray:none;stroke-opacity:1"
         d="m 1411.2094,507.07786 c -19.815,9.68492 -82.2591,27.58328 -76.9921,-55.39619 14.6536,-45.21527 99.5175,-81.50708 79.8089,-152.10668 -29.1213,-76.35783 -4.065,-119.60654 9.3893,-169.94626 23.3223,-43.483852 48.3573,-33.880682 74.1753,0 66.4281,84.84591 66.0046,108.77163 47.8854,145.53372 0,0 -29.1068,63.84753 -57.2747,91.07626 -25.1961,30.61809 -33.1634,38.34288 -39.4157,60.48941 -6.2523,22.14562 -9.8507,66.22467 -37.5764,80.34974 z"
         id="path3438-1"
         inkscape:connector-curvature="0"
         sodipodi:nodetypes="cccccccsc" />
      <path
         style="fill:#ffffff;fill-opacity:1;fill-rule:evenodd;stroke:#000000;stroke-width:9.10999012px;stroke-linecap:butt;stroke-linejoin:miter;stroke-opacity:1"
         d="m 1307.3364,-151.51406 0,765.40617"
         id="path4262-8"
         inkscape:connector-curvature="0"
         sodipodi:nodetypes="cc" />
    </g>
    <path
       style="fill:none;fill-rule:evenodd;stroke:#000000;stroke-width:1.0864104px;stroke-linecap:butt;stroke-linejoin:miter;stroke-opacity:1"
       d="m 140.341,877.6892 3.1e-4,100.00003"
       id="path3342"
       inkscape:connector-curvature="0"
       sodipodi:nodetypes="cc" />
    <path
       inkscape:connector-curvature="0"
       id="path3344"
       d="m 190.34131,927.68923 -100,0"
       style="fill:none;fill-rule:evenodd;stroke:#000000;stroke-width:1.0864104px;stroke-linecap:butt;stroke-linejoin:miter;stroke-opacity:1" />
    <path
       style="fill:none;fill-rule:evenodd;stroke:#000000;stroke-width:1.0864104px;stroke-linecap:butt;stroke-linejoin:miter;stroke-opacity:1"
       d="M 183.64258,902.68923 97.04,952.6892"
       id="path3346"
       inkscape:connector-curvature="0"
       sodipodi:nodetypes="cc" />
    <path
       inkscape:connector-curvature="0"
       id="path3348"
       d="M 97.040039,902.68923 183.643,952.6892"
       style="fill:none;fill-rule:evenodd;stroke:#000000;stroke-width:1.0864104px;stroke-linecap:butt;stroke-linejoin:miter;stroke-opacity:1"
       sodipodi:nodetypes="cc" />
    <path
       style="fill:none;fill-rule:evenodd;stroke:#000000;stroke-width:1px;stroke-linecap:butt;stroke-linejoin:miter;stroke-opacity:1"
       d="m 261.09768,1049.9037 -21.651,-37.5 -21.651,-37.50001 -21.6505,37.50001 -21.6505,37.5 43.3015,0 z"
       id="path3352-1"
       inkscape:connector-curvature="0"
       sodipodi:nodetypes="ccccccc"
       inkscape:transform-center-y="-11.716825" />
    <path
       style="fill:none;fill-rule:evenodd;stroke:#000000;stroke-width:0.99999994;stroke-linecap:butt;stroke-linejoin:round;stroke-miterlimit:4;stroke-dasharray:none;stroke-opacity:1"
       d="m 27.018965,1033.2295 c 2.157267,1.0544 8.955578,3.003 8.382158,-6.0311 -1.595349,-4.9225 -10.834502,-8.8736 -8.688823,-16.5598 3.170446,-8.3131 0.44255,-13.02165 -1.022214,-18.50211 -2.539117,-4.73413 -5.264671,-3.68867 -8.075491,0 -7.232049,9.23721 -7.185948,11.84201 -5.213292,15.84431 0,0 3.168863,6.9511 6.235506,9.9155 2.743116,3.3333 3.610514,4.1744 4.291204,6.5854 0.680689,2.4111 1.07245,7.2099 4.090952,8.7478 z"
       id="path3436"
       inkscape:connector-curvature="0"
       sodipodi:nodetypes="cccccccsc" />
    <path
       sodipodi:nodetypes="cccccccsc"
       inkscape:connector-curvature="0"
       id="path3438"
       d="m 49.636024,1033.3317 c -2.157268,1.0544 -8.955581,3.003 -8.38216,-6.031 1.59535,-4.9226 10.834504,-8.8737 8.688824,-16.5599 -3.170446,-8.3131 -0.442549,-13.02163 1.022214,-18.50209 2.539117,-4.73413 5.264671,-3.68867 8.075492,0 7.232047,9.23719 7.185946,11.84199 5.21329,15.84429 0,0 -3.168862,6.9511 -6.235505,9.9155 -2.743116,3.3334 -3.610514,4.1744 -4.291203,6.5855 -0.68069,2.411 -1.072451,7.2099 -4.090952,8.7477 z"
       style="fill:none;fill-rule:evenodd;stroke:#000000;stroke-width:0.99999994;stroke-linecap:butt;stroke-linejoin:round;stroke-miterlimit:4;stroke-dasharray:none;stroke-opacity:1" />
    <path
       style="fill:none;fill-rule:evenodd;stroke:#000000;stroke-width:1;stroke-linecap:butt;stroke-linejoin:round;stroke-opacity:1;stroke-miterlimit:4;stroke-dasharray:none"
       d="m 38.327218,961.72362 c -14.433845,5e-5 -21.361827,21.00021 -28.5786479,33.50028 -7.2168087,12.5001 -21.9391941,29.0004 -14.7222472,41.5004 7.2169489,12.4999 28.8674681,7.9999 43.3012011,7.9998 14.433732,0 36.084328,4.4999 43.301183,-8.0001 7.216879,-12.5 -7.505623,-29.0001 -14.722529,-41.5002 -7.216924,-12.50005 -14.14511,-33.50024 -28.57896,-33.50018 z"
       id="path3446"
       inkscape:connector-curvature="0"
       sodipodi:nodetypes="zszszsz"
       inkscape:transform-center-y="-9.5017235"
       inkscape:transform-center-x="0.72299455" />
    <path
       sodipodi:nodetypes="cc"
       inkscape:connector-curvature="0"
       id="path4262"
       d="m 38.327338,961.63055 3.1e-4,83.33005"
       style="fill:none;fill-rule:evenodd;stroke:#000000;stroke-width:0.99180734px;stroke-linecap:butt;stroke-linejoin:miter;stroke-opacity:1" />
  </g>
</svg>
